HIERARCHY
ROOT Hips
{
	OFFSET 0.00000 0.00000 0.00000
	CHANNELS 6 Xposition Yposition Zposition Zrotation Yrotation Xrotation 
	JOINT LHipJoint
	{
		OFFSET 0 0 0
		CHANNELS 3 Zrotation Yrotation Xrotation
		JOINT LeftHip
		{
			OFFSET 1.65412 -1.54119 0.76744
			CHANNELS 3 Zrotation Yrotation Xrotation
			JOINT LeftKnee
			{
				OFFSET 2.19550 -6.03209 0.00000
				CHANNELS 3 Zrotation Yrotation Xrotation
				JOINT LeftAnkle
				{
					OFFSET 2.38814 -6.56138 0.00000
					CHANNELS 3 Zrotation Yrotation Xrotation
					JOINT LeftToe
					{
						OFFSET 0.17337 -0.47632 1.75875
						CHANNELS 3 Zrotation Yrotation Xrotation
						End Site
						{
							OFFSET 0.00000 -0.00000 0.92050
						}
					}
				}
			}
		}
	}
	JOINT RHipJoint
	{
		OFFSET 0 0 0
		CHANNELS 3 Zrotation Yrotation Xrotation
		JOINT RightHip
		{
			OFFSET -1.40291 -1.54119 0.76744
			CHANNELS 3 Zrotation Yrotation Xrotation
			JOINT RightKnee
			{
				OFFSET -2.22156 -6.10370 0.00000
				CHANNELS 3 Zrotation Yrotation Xrotation
				JOINT RightAnkle
				{
					OFFSET -2.46840 -6.78188 0.00000
					CHANNELS 3 Zrotation Yrotation Xrotation
					JOINT RightToe
					{
						OFFSET -0.15659 -0.43024 1.84117
						CHANNELS 3 Zrotation Yrotation Xrotation
						End Site
						{
							OFFSET -0.00000 -0.00000 0.95587
						}
					}
				}
			}
		}
	}
	JOINT lowerback
	{
		OFFSET 0 0 0
		CHANNELS 3 Zrotation Yrotation Xrotation
		JOINT Chest
		{
			OFFSET -0.01936 1.82120 -0.32061
			CHANNELS 3 Zrotation Yrotation Xrotation
			JOINT Chest2
			{
				OFFSET -0.00532 1.85767 -0.00071
				CHANNELS 3 Zrotation Yrotation Xrotation
				JOINT lowerneck
				{
					OFFSET 0 0 0
					CHANNELS 3 Zrotation Yrotation Xrotation
					JOINT Neck
					{
						OFFSET -0.10687 1.58194 0.10810
						CHANNELS 3 Zrotation Yrotation Xrotation
						JOINT Head
						{
							OFFSET 0.15346 1.57382 -0.25612
							CHANNELS 3 Zrotation Yrotation Xrotation
							End Site
							{
								OFFSET 0.05334 1.61251 -0.10513
							}
						}
					}
				}
				JOINT LeftCollar
				{
					OFFSET 0 0 0
					CHANNELS 3 Zrotation Yrotation Xrotation
					JOINT LeftShoulder
					{
						OFFSET 2.85758 0.89498 -0.01485
CHANNELS 3 Zrotation Xrotation Yrotation
						JOINT LeftElbow
						{
OFFSET 0 -4.791850 -0.000000
CHANNELS 3 Zrotation Xrotation Yrotation
							JOINT LeftWrist
							{
OFFSET 0 -2.655530 0.000000
CHANNELS 3 Zrotation Xrotation Yrotation
								JOINT lhand
								{
									OFFSET 0 0 0
CHANNELS 3 Zrotation Xrotation Yrotation
									JOINT LFingers
									{
OFFSET 0 -0.743900 0.000000
CHANNELS 3 Zrotation Xrotation Yrotation
										End Site
										{
OFFSET 0 -0.599750 0.000000
										}
									}
								}
								JOINT LThumb
								{
OFFSET 0 0.000000 0.000000
CHANNELS 3 Zrotation Xrotation Yrotation
									End Site
									{
OFFSET 0 -0.608910 0.608910
									}
								}
							}
						}
					}
				}
				JOINT RightCollar
				{
					OFFSET 0 0 0
					CHANNELS 3 Zrotation Yrotation Xrotation
					JOINT RightShoulder
					{
						OFFSET -2.93906 0.88031 0.02490
CHANNELS 3 Zrotation Xrotation Yrotation
						JOINT RightElbow
						{
OFFSET 0 -4.772540 -0.000000
CHANNELS 3 Zrotation Xrotation Yrotation
							JOINT RightWrist
							{
OFFSET 0 -2.759950 -0.000000
CHANNELS 3 Zrotation Xrotation Yrotation
								JOINT rhand
								{
									OFFSET 0 0 0
CHANNELS 3 Zrotation Xrotation Yrotation
									JOINT RFingers
									{
OFFSET 0 -0.701620 0.000000
CHANNELS 3 Zrotation Xrotation Yrotation
										End Site
										{
OFFSET 0 -0.565660 0.000000
										}
									}
								}
								JOINT RThumb
								{
OFFSET 0 0.000000 0.000000
CHANNELS 3 Zrotation Xrotation Yrotation
									End Site
									{
OFFSET 0 -0.574300 0.574300
									}
								}
							}
						}
					}
				}
			}
		}
	}
}
MOTION
Frames: 5
Frame Time: 0.008333333333333333
0.311861 15.571254 -1.120983 0.696803 -4.226811 -3.193105 0.000000 0.000000 0.000000 -17.991999 -11.572404 -7.328504 3.158230 10.946976 32.101232 0.736578 3.093760 -17.622045 0.708982 -5.381501 -14.999952 0.000000 0.000000 0.000000 16.419961 18.747531 -8.491312 -4.037805 -12.210566 36.480922 -0.706059 -5.949731 -19.134267 -0.902138 6.052597 -16.937285 -2.983851 -0.428805 13.816622 -0.632705 -1.014835 3.767008 1.192211 -0.491697 -3.730362 -10.374071 -5.702424 -10.216374 11.603360 -7.816757 12.708074 4.723861 -3.468114 6.405049 0.000000 0.000000 0.000000 18.422003 -4.775818 -53.655287 130.501567 -52.789468 94.225386 -12.069561 -6.333288 -35.144690 0.000000 0.000000 0.000000 -7.125000 0.000000 0.000000 -49.786477 57.937943 18.744339 0.000000 0.000000 0.000000 -13.489922 -32.973694 46.006159 -149.397350 -41.402947 -108.193237 21.483536 20.313502 -6.009698 0.000000 0.000000 0.000000 7.125000 0.000000 0.000000 33.387857 22.902940 21.636080
0.300001 15.604975 -1.176242 0.163545 -3.692196 -2.262223 0.000000 0.000000 0.000000 -17.191688 -12.600921 -8.376512 3.155465 10.942576 32.086539 0.699614 3.365125 -17.374060 0.642329 -5.127176 -14.271623 0.000000 0.000000 0.000000 16.778132 19.132313 -9.117220 -3.889822 -12.012194 35.775308 -0.618247 -6.658777 -18.751810 -0.933077 6.152818 -17.228693 -2.721585 -0.395972 14.596681 -0.692611 -0.959973 3.958685 0.981224 -0.463718 -3.959633 -9.970072 -5.829872 -9.718363 12.112467 -8.158022 12.482143 4.797196 -3.597988 6.292760 0.000000 0.000000 0.000000 17.252956 -5.238820 -61.359825 137.031607 -49.729643 99.322261 -13.428297 -17.777106 -36.796604 0.000000 0.000000 0.000000 -7.125000 0.000000 0.000000 -52.877119 58.746129 21.451839 0.000000 0.000000 0.000000 -15.025373 -33.126832 41.254227 -141.363745 -47.224722 -102.563665 18.280483 25.427067 -6.001275 0.000000 0.000000 0.000000 7.125000 0.000000 0.000000 31.543973 23.231174 19.635435
0.263235 15.648291 -1.211069 -0.824121 -1.610274 -0.981733 0.000000 0.000000 0.000000 -15.674594 -14.373429 -9.946168 3.186251 10.990625 32.248146 0.658253 2.802759 -16.596004 0.639474 -5.116303 -14.240479 0.000000 0.000000 0.000000 17.600309 18.746233 -9.766850 -3.650017 -11.679507 34.607470 -0.499670 -8.080422 -18.674284 -0.852589 5.888787 -16.462117 -2.562532 -0.581945 14.316947 0.176775 -1.125704 4.097295 1.825793 -0.551584 -3.641208 -11.305448 -6.053935 -9.571457 12.230067 -8.333859 13.032420 5.046988 -3.735608 6.523105 0.000000 0.000000 0.000000 14.714203 -12.763255 -59.086885 143.697371 -45.720125 104.261210 -11.532242 -13.296373 -34.775540 0.000000 0.000000 0.000000 -7.125000 0.000000 0.000000 -48.906443 57.800764 18.126494 0.000000 0.000000 0.000000 -15.309922 -26.545027 41.032415 -123.527722 -55.293451 -88.576918 18.740584 31.822681 -5.547697 0.000000 0.000000 0.000000 7.125000 0.000000 0.000000 31.934165 23.595532 19.645800
0.204384 15.665880 -1.219848 -0.465509 0.155175 -0.307976 0.000000 0.000000 0.000000 -15.741552 -15.765193 -10.459982 3.089604 10.838688 31.737839 0.601059 2.561653 -15.796787 0.613470 -5.012864 -13.945304 0.000000 0.000000 0.000000 17.188874 18.545495 -10.378066 -3.679354 -11.720960 34.751927 -0.509554 -8.809599 -19.456796 -0.694133 5.321112 -14.827753 -2.229652 -0.235182 15.293211 -0.457690 -0.677348 3.909567 0.906675 -0.318014 -4.401241 -11.543055 -6.630812 -9.755912 12.741587 -9.166803 13.156257 5.160582 -4.103411 6.737342 0.000000 0.000000 0.000000 14.910861 -21.728969 -51.256540 147.662189 -42.814506 107.030056 -6.798187 -7.154009 -32.867253 0.000000 0.000000 0.000000 -7.125000 0.000000 0.000000 -42.666434 57.448680 14.789414 0.000000 0.000000 0.000000 -11.541694 -15.954759 44.083564 -115.839466 -57.318883 -82.176013 27.522266 34.125481 -4.827053 0.000000 0.000000 0.000000 7.125000 0.000000 0.000000 36.902877 23.083516 25.098606
0.172451 15.666097 -1.224328 -0.226146 0.935371 0.723524 0.000000 0.000000 0.000000 -15.598584 -16.757350 -11.597551 3.093479 10.844934 31.758499 0.568636 2.616092 -15.434635 0.634306 -5.095589 -14.181406 0.000000 0.000000 0.000000 16.697440 18.973892 -11.805289 -3.814416 -11.909245 35.411812 -0.452449 -9.671777 -19.688768 -0.703853 5.362251 -14.944729 -1.978908 -0.023670 15.777448 -0.376703 -0.369401 3.716716 0.795687 -0.161473 -4.877699 -12.439822 -6.611226 -9.391289 12.484845 -8.861559 11.750772 5.255217 -4.041780 6.221450 0.000000 0.000000 0.000000 15.182564 -25.457511 -42.341678 148.052070 -42.505320 107.294254 -3.506677 -1.821306 -32.343821 0.000000 0.000000 0.000000 -7.125000 0.000000 0.000000 -39.116387 57.757934 13.576430 0.000000 0.000000 0.000000 -9.672936 -7.249871 52.180284 -124.777348 -54.892546 -89.600993 29.863711 25.694266 -4.938222 0.000000 0.000000 0.000000 7.125000 0.000000 0.000000 37.960072 22.517239 27.038015
